<svg width="59" height="93" viewBox="0 0 59 93" fill="none" xmlns="http://www.w3.org/2000/svg">
<g clip-path="url(#clip0_107_377)">
<path d="M44.7073 27.4206C47.3941 27.6338 49.8676 27.847 52.3411 28.0603C52.8955 28.1029 53.4499 28.1882 53.9191 28.4014C54.8573 28.7853 55.3264 29.5529 55.4117 30.6191C55.497 32.0264 55.2411 33.3485 54.7294 34.6279C54.1323 36.1632 53.4926 37.6558 52.7676 39.1058C51.0191 42.6882 49.0999 46.1852 47.0102 49.597C42.8735 56.2499 38.7795 62.8602 34.7707 69.5984C32.8516 72.7969 31.2736 76.1661 29.4824 79.4072C27.6913 82.6911 25.8148 85.9749 24.0236 89.2587C23.0427 91.0925 21.3795 91.9881 19.5457 92.5425C17.4133 93.1822 15.1957 91.9028 14.5133 89.7705C14.0016 88.1499 13.9589 86.4866 14.5986 84.9513C15.7501 82.1793 17.0721 79.4925 18.3942 76.8058C18.8207 75.9528 19.503 75.2705 20.356 74.7587C21.6354 73.9911 22.3177 74.2469 22.6589 75.6543C22.7016 75.7822 22.7016 75.9102 22.7869 76.2514C23.0854 75.8249 23.2986 75.569 23.4692 75.2705C26.3266 70.6646 28.928 65.8881 31.2736 60.9837C34.9413 53.3073 39.0354 45.8867 43.1294 38.4235C43.7264 37.3147 44.4514 36.2911 45.0911 35.1823C45.2617 34.8838 45.4323 34.6279 45.6455 34.2441C44.1529 34.1588 42.7882 34.0735 41.4663 33.9882C41.0824 33.9456 40.8692 34.1588 40.656 34.5C40.1442 35.3103 39.6324 36.1205 39.1207 36.9308C38.0545 38.722 36.4766 39.5323 34.3868 39.3617C33.7898 39.3191 33.1501 39.3191 32.553 39.1485C30.9324 38.7647 30.1221 37.3147 30.5486 35.6941C30.6766 35.225 30.8898 34.7985 31.103 34.372C35.1545 27.122 39.1633 19.9147 43.2573 12.7073C44.4514 10.6176 45.8161 8.61322 47.0955 6.52352C47.2661 6.22499 47.4367 5.96911 47.6499 5.58528C47.0529 5.54264 46.6264 5.54264 46.1573 5.45734C45.0911 5.28675 44.5367 4.6897 44.4088 3.75145C44.3235 3.02645 44.5794 2.55733 45.2617 2.2588C45.6882 2.08822 45.9867 1.78969 46.3279 1.5338C46.7117 1.23528 47.2661 0.936746 47.7779 0.936746C49.8249 0.808805 51.7867 0.723511 53.7911 0.723511C54.5161 0.723511 55.2838 0.851452 56.0088 1.02204C57.5014 1.36322 58.1838 2.47204 57.7573 3.92204C57.5441 4.6897 57.2029 5.45734 56.7338 6.1397C55.0705 8.44263 53.6205 10.9162 52.3411 13.5176C50.1661 17.9103 47.8205 22.175 45.3044 26.3544C45.1338 26.6529 44.9632 26.9514 44.7073 27.4206Z" fill="black"/>
<path d="M13.1059 45.247C11.8265 45.3323 10.6324 45.4176 9.39559 45.4602C7.47647 45.5882 5.51471 45.7161 3.5956 45.8014C3.16913 45.8441 2.7853 45.8441 2.35883 45.8014C0.695598 45.6308 -0.242636 44.3088 0.0985407 42.6882C0.141188 42.5176 0.183835 42.3471 0.269129 42.2191C2.18825 37.1868 3.55295 32.0265 4.83235 26.8235C6.28236 21.0662 7.775 15.3088 9.26765 9.59413C9.56618 8.4853 9.90736 7.37648 10.2059 6.26766C10.6324 4.77501 11.4853 3.79412 13.1059 3.62353C14.8118 3.45294 16.475 3.15441 18.1809 3.02647C25.8574 2.55735 33.5338 1.70441 41.1677 0.808825C43.0867 0.595588 45.0485 0.425 46.9676 0.297059C47.6499 0.254412 48.3323 0.297059 48.972 0.467647C50.5926 0.851472 51.2749 2.38677 50.6352 3.87941C50.422 4.34853 50.1235 4.77501 49.8249 5.20148C49.0573 6.3956 48.2896 7.54707 47.5646 8.74119C45.6029 12.0677 43.6837 15.3941 41.6794 18.6779C39.675 21.9618 37.6279 25.2456 35.5809 28.5294C34.9838 29.4676 34.3868 30.3632 33.7897 31.2588C33.6191 31.5147 33.4485 31.8132 33.1927 32.2397C33.6191 32.2397 33.875 32.2397 34.1309 32.2397C37.6706 32.2824 41.2103 32.2824 44.7499 32.325C45.0058 32.325 45.3043 32.3676 45.5602 32.4103C47.1808 32.7515 47.9911 34.2441 47.394 35.7794C47.1808 36.3338 46.797 36.8456 46.4132 37.3147C44.6646 39.6176 42.8735 41.8779 41.1677 44.2235C40.3574 45.3323 39.6324 46.5691 38.9927 47.8058C35.5382 54.3735 32.1265 60.8985 28.7574 67.5088C25.2603 74.2897 21.8485 81.1558 18.3941 87.9367C18.1382 88.4485 17.8397 88.9602 17.4132 89.3867C16.3897 90.4529 15.025 90.3676 13.9588 89.3867C13.1912 88.6617 12.7647 87.8088 12.7221 86.7852C12.5941 84.8661 12.4235 82.9044 12.4662 80.9426C12.5941 73.9485 12.85 66.9544 12.9779 59.9602C13.0632 55.2264 13.0632 50.4926 13.1059 45.7588C13.1912 45.6308 13.1485 45.4602 13.1059 45.247Z" fill="#EA552B"/>
</g>
<defs>
<clipPath id="clip0_107_377">
<rect width="58" height="92.5441" fill="white" transform="translate(0.0289307 0.281677)"/>
</clipPath>
</defs>
</svg>
