<svg width="141" height="137" viewBox="0 0 141 137" fill="none" xmlns="http://www.w3.org/2000/svg">
<g clip-path="url(#clip0_107_380)">
<path d="M73.4288 91.6732C73.9617 92.0123 74.3008 92.2545 74.6399 92.4967C77.6918 95.1126 80.7921 97.7285 83.844 100.344C84.716 101.071 85.5395 101.798 86.3631 102.621C86.8475 103.106 87.2835 103.687 87.671 104.268C88.543 105.673 88.3008 106.787 86.9444 107.805C86.4599 108.144 85.9755 108.434 85.4426 108.677C82.5845 110.178 79.6295 111.389 76.5776 112.407C76.1416 112.552 75.7056 112.697 75.1727 112.891C75.3665 113.182 75.5118 113.424 75.7056 113.666C81.5672 119.77 86.8475 126.358 92.37 132.753C92.6122 133.043 92.8544 133.334 93.0966 133.673C93.3873 134.206 93.3873 134.739 92.9997 135.223C92.6606 135.708 92.1278 135.902 91.5464 135.805C91.1105 135.708 90.6745 135.514 90.2385 135.32C89.4634 134.933 88.6399 134.497 87.8648 134.061C87.4772 133.867 87.0897 133.673 86.7506 133.479C84.9582 132.414 83.1658 131.348 81.3734 130.234C80.2108 129.507 78.9997 128.732 77.934 127.86C72.4115 123.452 66.9375 119.043 61.8025 114.199C59.2835 111.777 56.5222 109.645 53.8579 107.417C53.6157 107.175 53.325 106.981 53.0828 106.739C52.3561 105.867 52.6468 104.801 53.761 104.462C54.1001 104.365 54.4392 104.317 54.7783 104.317C57.0551 104.268 59.3319 104.22 61.6087 104.22C61.9963 104.22 62.3354 104.22 62.9651 104.22C61.851 102.863 60.9305 101.652 59.9132 100.49C58.6053 98.9881 57.2973 97.5348 55.9894 96.033C55.6987 95.6939 55.3596 95.6455 54.9721 95.6455C47.7056 95.9846 40.5845 95.1126 33.5603 93.3687C26.2938 91.5763 19.9478 87.8946 14.28 83.0503C10.889 80.1437 8.85437 76.4136 7.83707 72.1507C7.54642 70.9396 7.49797 69.6801 7.35264 68.469C6.48067 61.8808 7.74019 55.6801 10.6468 49.77C12.9236 45.2166 15.7817 41.1474 19.1243 37.3204C24.017 31.6526 29.6364 26.8083 35.6917 22.4C45.7679 15.0367 56.5222 8.98131 68.2939 4.8152C74.543 2.58682 80.889 0.988206 87.4772 0.358448C95.3734 -0.416639 103.173 0.116234 110.778 2.58682C118.335 5.05743 124.052 9.80484 127.976 16.6837C130.301 20.7045 131.899 25.0159 132.578 29.618C133.45 35.964 132.384 42.0194 129.623 47.8325C127.636 51.95 125.069 55.6801 122.259 59.2164C110.778 73.7977 96.197 84.0192 78.6122 89.9777C77.2558 90.4136 75.8994 90.8981 74.543 91.3341C74.3008 91.3341 74.0586 91.4309 73.4288 91.6732Z" fill="#FFD6FF"/>
<path d="M40.197 8.64225C39.761 9.17512 39.4703 9.56266 39.1312 9.90176C36.7091 12.3239 34.2869 14.7945 31.8163 17.2166C27.8925 21.0436 23.8717 24.7253 19.9963 28.6007C15.3458 33.2028 11.4219 38.3862 8.32154 44.1994C5.22119 49.9154 3.3319 56.0676 3.04125 62.6559C2.79903 67.5971 3.38035 72.4898 5.07585 77.1888C5.51185 78.3998 6.14161 79.6109 6.72292 80.7735C7.11046 81.5971 7.49801 82.3722 7.83711 83.1957C8.12777 83.8739 7.93399 84.3583 7.49801 84.649C7.01358 84.9396 6.48071 84.7943 5.99628 84.213C5.80251 83.9708 5.60873 83.7286 5.46341 83.4379C2.89592 79.7562 1.53951 75.6386 0.812871 71.2787C-0.882631 60.9604 1.24886 51.3202 6.19005 42.2616C9.09662 36.9329 12.6814 32.1371 16.8475 27.8257C22.1762 22.3032 27.9409 17.2166 33.8025 12.2755C35.1589 11.1613 36.6122 10.2409 38.0655 9.272C38.5984 8.88446 39.2281 8.5938 40.197 8.64225Z" fill="#FFD6FF"/>
<path d="M139.844 29.7634C139.796 35.2375 138.536 40.4693 136.598 45.5074C134.176 51.8532 130.834 57.6663 126.425 62.8497C124.633 64.9328 122.744 66.9674 120.903 68.9535C120.612 69.2926 120.225 69.6317 119.886 69.8739C119.256 70.3584 118.723 70.4068 118.335 70.0677C117.948 69.6802 117.948 69.1473 118.432 68.5175C118.626 68.2269 118.868 67.9847 119.111 67.7424C121.097 65.4172 123.131 63.0919 125.021 60.7182C130.495 53.7909 134.273 45.9918 136.162 37.3205C137.277 32.1371 137.131 26.9053 136.017 21.7703C135.387 18.9122 133.983 16.3447 132.578 13.8257C130.931 10.8222 128.944 8.061 126.571 5.59041C125.989 4.96065 125.457 4.33088 124.924 3.65268C124.681 3.36202 124.488 3.02292 124.294 2.68382C124.1 2.29628 123.81 1.90874 124.197 1.52119C124.536 1.18209 124.972 1.37586 125.263 1.56963C126.038 2.05406 126.765 2.49005 127.443 3.07137C131.028 6.02639 133.789 9.65962 135.823 13.7773C137.18 16.4901 138.633 19.2513 139.069 22.3032C139.36 24.7738 139.553 27.2444 139.844 29.7634Z" fill="#FFD6FF"/>
</g>
<defs>
<clipPath id="clip0_107_380">
<rect width="140" height="136.125" fill="white" transform="translate(0.237915 0.0288086)"/>
</clipPath>
</defs>
</svg>
